<?xml version="1.0" encoding="utf-8"?>
<!-- Generator: Adobe Illustrator 19.0.0, SVG Export Plug-In . SVG Version: 6.00 Build 0)  -->
<svg version="1.1" id="Layer_1" xmlns="http://www.w3.org/2000/svg" xmlns:xlink="http://www.w3.org/1999/xlink" x="0px" y="0px"
	 viewBox="0 0 121.9 121.9" style="enable-background:new 0 0 121.9 121.9;" xml:space="preserve">
<style type="text/css">
	.st0{fill:#537ABC;}
	.st1{fill:#FEFEFE;}
</style>
<circle class="st0" cx="61" cy="61" r="61"/>
<path class="st1" d="M64.6,75.9c0,4.7,0,9.3,0,14c0,1.1-0.3,1.4-1.4,1.4c-2.8-0.1-5.7-0.1-8.5,0c-1.3,0-1.8-0.3-1.8-1.7
	c0.1-9.1,0-18.2,0-27.3c0-2,0-2-2-2c-1,0-2.1,0-3.1,0c-0.7,0-1.1-0.2-1.1-1c0-2.3,0-4.7,0-7c0-0.8,0.3-1,1-1c1.3,0,2.6,0,3.9,0
	c1,0.1,1.3-0.3,1.3-1.3c0-2.7-0.1-5.5,0.1-8.2c0.4-6.2,4.7-10.2,10.9-10.2c3.4,0,6.8,0.1,10.2,0.7c1.1,0.2,1.4,0.6,1.2,1.7
	c-0.4,2.2-0.8,4.5-1.2,6.7c-0.1,1-0.6,1.1-1.4,0.9c-1.5-0.4-3.1-0.6-4.7-0.5c-2.6,0.3-3.6,1.4-3.6,4c0,1.6,0.1,3.2,0,4.8
	c0,1,0.3,1.4,1.3,1.4c2.4-0.1,4.8,0,7.1,0c1.1,0,1.4,0.3,1.3,1.4c-0.2,2.2-0.4,4.4-0.5,6.7c0,0.8-0.3,1-1.1,1c-2.2,0-4.4,0.1-6.6,0
	c-1.3-0.1-1.6,0.4-1.6,1.6C64.7,66.6,64.6,71.3,64.6,75.9z"/>
</svg>
