<?xml version="1.0" encoding="utf-8"?>
<!-- Generator: Adobe Illustrator 19.0.0, SVG Export Plug-In . SVG Version: 6.00 Build 0)  -->
<svg version="1.1" id="Layer_1" xmlns="http://www.w3.org/2000/svg" xmlns:xlink="http://www.w3.org/1999/xlink" x="0px" y="0px"
	 viewBox="-421.7 243.7 84.8 74.8" style="enable-background:new -421.7 243.7 84.8 74.8;" xml:space="preserve">
<style type="text/css">
	.st0{fill:#A7F0FC;}
	.st1{fill:#45C4D8;}
</style>
<path class="st0" d="M-379.6,310.4c-8,0-16.1,0-24.1,0c-8.6,0-15.5-5.5-17-13.9c-1.3-6.8,1.1-12.5,6.5-16.8c0.7-0.5,0.9-1,0.8-1.9
	c-0.7-4.7,0.8-8.6,4.7-11.4c3.9-2.8,8.1-3,12.3-0.8c1,0.5,1.3,0.4,1.8-0.6c6.4-11.1,20.1-15.5,31.7-10c5.5,2.6,9,7.3,11.4,12.8
	c1.4,3.2,2.1,6.5,2.4,9.9c0.1,0.7,0.3,1.1,1,1.3c6.6,2.8,10.7,10.7,8.9,18.6c-1.8,7.5-8.5,12.8-16.3,12.7c-4,0-8.1,0-12.1,0
	C-371.6,310.4-375.6,310.4-379.6,310.4C-379.6,310.4-379.6,310.4-379.6,310.4z"/>
<path class="st1" d="M-364.8,281.4c0-2-1.6-3.5-3.6-3.5c-0.5,0-0.9,0-1.4,0c-1.8,0-1.8,0-2.4-1.6c-0.5-1.3-1.4-2-2.8-2
	c-2.2,0-4.5,0-6.8,0c-0.8,0-1.4,0.3-2,0.8c-0.7,0.6-0.8,1.5-1.2,2.3c-0.2,0.4-0.3,0.6-0.8,0.5c-0.7-0.1-1.4,0-2.1,0
	c-2.6-0.2-4.2,1.8-4.2,4.1c0.1,3.9,0,7.9,0,11.8c0,2.6,1.4,4.1,4,4.1c3.2,0,6.4,0,9.6,0c3.4,0,6.8,0,10.1-0.1c1.9,0,3.4-1.6,3.4-3.5
	C-364.7,289.9-364.7,285.7-364.8,281.4z M-378.3,294.2c-3.5,0-6.3-2.9-6.3-6.4c0-3.5,2.8-6.3,6.3-6.3c3.5,0,6.3,2.8,6.3,6.3
	C-372,291.3-374.9,294.2-378.3,294.2z"/>
<path class="st1" d="M-374.2,287.8c0,2.2-1.9,4.1-4.1,4.1s-4.1-1.8-4.1-4c0-2.2,1.9-4.2,4.1-4.1
	C-376.1,283.7-374.2,285.6-374.2,287.8z"/>
</svg>
