<?xml version="1.0" encoding="UTF-8" standalone="no"?>
<svg width="36px" height="35px" viewBox="0 0 36 35" version="1.1" xmlns="http://www.w3.org/2000/svg" xmlns:xlink="http://www.w3.org/1999/xlink">
    <!-- Generator: Sketch 39.1 (31720) - http://www.bohemiancoding.com/sketch -->
    <title>Shape</title>
    <desc>Created with Sketch.</desc>
    <defs></defs>
    <g id="Symbols" stroke="none" stroke-width="1" fill="none" fill-rule="evenodd">
        <g id="Categories-BB" transform="translate(-25.000000, -15.000000)" fill="#45C8F2">
            <path d="M31.4338235,48.5073529 C31.8970588,45.7794118 32.2058824,43 32.875,40.2720588 C33.3897059,38.2132353 33.0294118,36.7720588 31.3308824,35.3823529 C29.375,33.7867647 27.6764706,31.8823529 25.875,30.1323529 C25.4117647,29.6691176 24.8455882,29.2058824 25.1029412,28.4852941 C25.3088235,27.7132353 26.0808824,27.7647059 26.6985294,27.6617647 C29.7867647,27.1985294 32.875,26.7352941 35.9632353,26.3235294 C36.7352941,26.2205882 37.1470588,25.8602941 37.5073529,25.1911765 C38.8455882,22.3602941 40.2352941,19.5808824 41.625,16.75 C41.8823529,16.1838235 42.0882353,15.4632353 42.9117647,15.5147059 C43.6323529,15.5147059 43.8382353,16.1838235 44.0955882,16.6985294 C45.4852941,19.4779412 46.875,22.3088235 48.2132353,25.1397059 C48.5735294,25.8602941 49.0367647,26.2205882 49.8602941,26.3235294 C52.8970588,26.7352941 55.9852941,27.1985294 59.0220588,27.6102941 C59.6397059,27.7132353 60.4117647,27.6617647 60.6691176,28.3823529 C60.9264706,29.1029412 60.3088235,29.5661765 59.8970588,30.0294118 C57.6838235,32.2426471 55.4191176,34.4558824 53.1544118,36.6176471 C52.5882353,37.1323529 52.4338235,37.6985294 52.5882353,38.4191176 C53.1544118,41.4558824 53.6176471,44.4926471 54.1323529,47.5294118 C54.2352941,48.1985294 54.4411765,48.9705882 53.7720588,49.4338235 C53.1029412,49.8970588 52.5367647,49.3308824 51.9705882,49.0735294 C49.2426471,47.6838235 46.5661765,46.2941176 43.8897059,44.8529412 C43.1176471,44.4411765 42.5,44.4411765 41.7794118,44.8529412 C38.9485294,46.3970588 36.1176471,47.8382353 33.2352941,49.3308824 C32.1544118,49.8970588 31.4852941,49.5367647 31.4338235,48.5073529 L31.4338235,48.5073529 Z" id="Shape"></path>
        </g>
    </g>
</svg>