<?xml version="1.0" encoding="UTF-8" standalone="no"?>
<svg width="35px" height="35px" viewBox="0 0 35 35" version="1.1" xmlns="http://www.w3.org/2000/svg" xmlns:xlink="http://www.w3.org/1999/xlink">
    <!-- Generator: Sketch 39.1 (31720) - http://www.bohemiancoding.com/sketch -->
    <title>Group 3</title>
    <desc>Created with Sketch.</desc>
    <defs></defs>
    <g id="Symbols" stroke="none" stroke-width="1" fill="none" fill-rule="evenodd">
        <g id="Categories-BB" transform="translate(-1038.000000, -15.000000)" fill="#45C8F2">
            <g id="Group-3" transform="translate(1038.000000, 15.000000)">
                <path d="M33.6644737,11.2368421 C30.1644737,7.73684211 26.7105263,4.23684211 23.1644737,0.782894737 C21.8289474,-0.506578947 20.0789474,-0.138157895 19.4802632,1.61184211 C18.4210526,4.55921053 16.3486842,6.58552632 13.7697368,8.15131579 C11.7434211,9.44078947 9.625,10.6381579 7.59868421,11.9276316 C4.32894737,14 1.65789474,16.5789474 0.276315789,20.2631579 C-0.230263158,21.5526316 -1.92281954e-13,22.6118421 0.967105263,23.625 C4.28289474,26.8947368 7.59868421,30.2565789 10.9144737,33.5263158 C12.5723684,35.1842105 14.2302632,34.8157895 15.1052632,32.6052632 C15.7960526,30.9013158 16.8092105,29.4276316 18.1907895,28.2302632 C20.2171053,26.4342105 22.6118421,25.1907895 24.9144737,23.8092105 C27.4013158,22.3355263 29.75,20.7236842 31.6381579,18.4671053 C32.9736842,16.8552632 34.0328947,15.1052632 34.4013158,13.3092105 C34.4013158,12.3421053 34.125,11.7434211 33.6644737,11.2368421 L33.6644737,11.2368421 Z M31.4078947,15.0592105 C29.9802632,17.7302632 27.7236842,19.5263158 25.2368421,21.0921053 C22.9802632,22.4736842 20.6776316,23.8092105 18.4671053,25.2828947 C16.1644737,26.8026316 14.2763158,28.7828947 13.2631579,31.4078947 C12.9407895,32.2368421 12.5723684,32.1447368 12.0197368,31.5921053 C8.93421053,28.4605263 5.80263158,25.3289474 2.67105263,22.2434211 C2.16447368,21.7368421 2.16447368,21.2763158 2.39473684,20.6776316 C3.26973684,18.4210526 4.78947368,16.6710526 6.63157895,15.1973684 C9.02631579,13.3092105 11.7434211,11.9276316 14.3223684,10.3157895 C16.7631579,8.79605263 19.0657895,7.04605263 20.4934211,4.42105263 C20.5855263,4.28289474 20.6315789,4.14473684 20.7236842,4.00657895 C21.5986842,2.30263158 21.5986842,2.30263158 23.0263158,3.73026316 C25.8355263,6.53947368 28.5986842,9.30263158 31.4078947,12.1118421 C31.7302632,12.4342105 32.1447368,12.7105263 32.1447368,13.3552632 C31.9144737,13.8618421 31.6842105,14.4605263 31.4078947,15.0592105 L31.4078947,15.0592105 Z" id="Shape"></path>
                <path d="M18.375,10.7763158 C18.1907895,10.7763158 18.0065789,10.7302632 17.9144737,10.5460526 C17.7763158,10.3157895 17.8684211,10.0855263 18.0526316,9.94736842 C19.5263158,8.70394737 20.8157895,7.32236842 21.9671053,5.75657895 C22.1513158,5.52631579 22.4276316,5.43421053 22.6578947,5.61842105 C22.8881579,5.75657895 22.8881579,6.03289474 22.7960526,6.26315789 C21.7368421,8.10526316 20.3092105,9.53289474 18.6052632,10.7302632 C18.5131579,10.7763158 18.4210526,10.7763158 18.375,10.7763158 L18.375,10.7763158 Z" id="Shape"></path>
                <path d="M16.4868421,24.3157895 C16.4868421,24.6842105 16.2565789,24.8684211 16.0723684,25.0526316 C14.7828947,26.1578947 13.6315789,27.3552632 12.6184211,28.7368421 C12.4342105,29.0131579 12.1578947,29.3355263 11.7894737,29.1052632 C11.3289474,28.8289474 11.6052632,28.4144737 11.7894737,28.0921053 C12.8026316,26.6184211 14,25.375 15.3815789,24.2697368 C15.7960526,23.9934211 16.2105263,23.8092105 16.4868421,24.3157895 L16.4868421,24.3157895 Z" id="Shape"></path>
                <path d="M21.3223684,19.2960526 C21.5526316,18.7894737 21.7368421,18.2828947 21.6907895,17.7302632 C21.6907895,16.0263158 19.8947368,14.875 17.9605263,15.6578947 C16.625,16.2105263 16.0723684,15.5197368 15.4276316,14.6907895 C15.0592105,14.1842105 15.1973684,13.9078947 15.7960526,13.8618421 C16.0723684,13.8157895 16.3486842,13.9078947 16.5789474,13.9539474 C17.0394737,14.0460526 17.5,14.0921053 17.6381579,13.5394737 C17.8223684,12.9407895 17.4078947,12.6184211 16.9013158,12.4342105 C16.3947368,12.2039474 13.6776316,12.8486842 13.3552632,13.2171053 C13.3092105,13.2631579 13.2631579,13.3552632 13.2631579,13.4013158 C13.4473684,14.2302632 12.8026316,14.8289474 12.6184211,15.5657895 C12.25,17.0855263 13.0789474,18.375 14.6907895,18.4671053 C15.2894737,18.5131579 15.9342105,18.4671053 16.4868421,18.2368421 C17.0855263,18.0065789 17.5460526,18.0526316 17.8684211,18.6052632 C18.1907895,19.1118421 19.1578947,19.4802632 18.7894737,20.125 C18.375,20.8157895 17.6381579,20.2631579 17.0394737,20.0328947 C16.625,19.8486842 16.2565789,19.8947368 16.0263158,20.3092105 C15.7960526,20.7236842 15.9802632,21.0460526 16.3026316,21.3223684 C16.9473684,21.9210526 17.7302632,22.1052632 18.5592105,21.875 C19.0197368,21.7368421 19.4802632,21.5065789 19.8947368,21.2763158 C20.3552632,21.0460526 20.8618421,22.0131579 21.1842105,21.2763158 C21.3684211,20.8618421 20.6315789,20.4473684 21.0460526,19.8947368 C21.1842105,19.6644737 21.2302632,19.4802632 21.3223684,19.2960526 L21.3223684,19.2960526 Z M14.9671053,16.7631579 C14.3684211,16.7171053 13.9539474,16.3947368 14,15.75 C14,15.4276316 14.0460526,14.9210526 14.5065789,15.0131579 C15.1052632,15.1513158 15.4276316,15.7039474 15.75,16.2105263 C15.6578947,16.7171053 15.3355263,16.7631579 14.9671053,16.7631579 L14.9671053,16.7631579 Z M19.7565789,19.1578947 C19.4802632,19.25 18.2368421,18.0526316 18.2828947,17.6842105 C18.3289474,17.2236842 18.7434211,17.1776316 19.0197368,17.1776316 C19.7565789,17.1315789 20.1710526,17.5 20.2631579,18.1907895 C20.2171053,18.6052632 20.1710526,19.0197368 19.7565789,19.1578947 L19.7565789,19.1578947 Z" id="Shape"></path>
            </g>
        </g>
    </g>
</svg>