<?xml version="1.0" encoding="UTF-8" standalone="no"?>
<svg width="31px" height="35px" viewBox="0 0 31 35" version="1.1" xmlns="http://www.w3.org/2000/svg" xmlns:xlink="http://www.w3.org/1999/xlink">
    <!-- Generator: Sketch 39.1 (31720) - http://www.bohemiancoding.com/sketch -->
    <title>Shape</title>
    <desc>Created with Sketch.</desc>
    <defs></defs>
    <g id="Symbols" stroke="none" stroke-width="1" fill="none" fill-rule="evenodd">
        <g id="Categories-BB" transform="translate(-550.000000, -15.000000)" fill="#45C8F2">
            <path d="M558.29697,43.8333333 L567.322727,43.8333333 C568.668182,43.8333333 570.013636,43.7777778 571.359091,43.8333333 C574.666667,44.0555556 576.965152,42.7777778 578.198485,39.6666667 C578.422727,39.0555556 578.815152,38.6666667 579.543939,38.8333333 C580.160606,39 580.49697,39.2222222 580.384848,40 C579.768182,42.8888889 579.151515,45.7222222 578.590909,48.6111111 C578.422727,49.3888889 578.030303,49.5555556 577.301515,49.5555556 L551.681818,49.5555556 C551.289394,49.5555556 550.784848,49.6666667 550.616667,49.1111111 C550.448485,48.6111111 550.616667,48.2222222 550.95303,47.8333333 C552.186364,46.5 553.363636,45.1111111 554.59697,43.7777778 C557.456061,40.6666667 560.259091,37.5 563.118182,34.3888889 C563.790909,33.6666667 563.84697,33.2222222 563.230303,32.3888889 C559.418182,27.4444444 555.718182,22.5 551.962121,17.5 C551.737879,17.1666667 551.401515,16.8333333 551.289394,16.4444444 C551.009091,15.6666667 551.009091,15 552.186364,15 L576.292424,15 C577.021212,15 577.413636,15.2222222 577.469697,16 C577.581818,18.2777778 577.75,20.5 577.918182,22.7777778 C577.974242,23.3888889 577.862121,23.8333333 577.077273,23.9444444 C576.292424,24.0555556 576.012121,23.7777778 575.787879,23.1111111 C573.769697,17.7777778 573.209091,17.3888889 567.490909,17.3888889 L562.445455,17.3888889 C562.05303,17.3888889 561.492424,17.1666667 561.324242,17.6666667 C561.212121,18 561.604545,18.3333333 561.828788,18.6111111 C564.351515,22.0555556 566.874242,25.5 569.509091,28.8888889 C570.237879,29.8333333 570.181818,30.3333333 569.39697,31.2222222 C566.033333,34.8888889 562.781818,38.6666667 559.530303,42.3888889 C559.193939,42.7222222 558.857576,43.1111111 558.29697,43.8333333 L558.29697,43.8333333 Z" id="Shape"></path>
        </g>
    </g>
</svg>