<?xml version="1.0" encoding="UTF-8" standalone="no"?>
<svg width="32px" height="35px" viewBox="0 0 32 35" version="1.1" xmlns="http://www.w3.org/2000/svg" xmlns:xlink="http://www.w3.org/1999/xlink">
    <!-- Generator: Sketch 39.1 (31720) - http://www.bohemiancoding.com/sketch -->
    <title>Group</title>
    <desc>Created with Sketch.</desc>
    <defs></defs>
    <g id="Symbols" stroke="none" stroke-width="1" fill="none" fill-rule="evenodd">
        <g id="Categories-BB" transform="translate(-295.000000, -15.000000)" fill="#1C2227">
            <g id="Group" transform="translate(295.000000, 15.000000)">
                <path d="M27.6052092,18.4916667 C26.8988925,17.7916667 26.9577523,17.3833333 27.6052092,16.7416667 C28.9001231,15.4583333 30.0184578,14.0583333 30.6659147,12.3083333 C31.7253897,9.625 30.607055,7.81666667 27.7229286,7.46666667 C26.0159967,7.29166667 24.3090648,7.40833333 22.6021329,7.875 C21.6015176,8.16666667 21.0717801,7.93333333 20.7774815,6.88333333 C20.4831829,5.48333333 19.8945857,4.2 19.1294094,3.03333333 C17.0693191,-0.233333333 14.4794914,-0.233333333 12.4194011,2.975 C11.5953651,4.2 11.0656276,5.54166667 10.7124692,7 C10.4770304,7.99166667 9.94729286,8.225 9.00553733,7.99166667 C7.8283429,7.64166667 6.59228876,7.46666667 5.35623462,7.46666667 L4.4733388,7.46666667 C0.765176374,7.64166667 -0.470877769,9.8 1.17719442,13.0666667 C1.88351107,14.4666667 2.82526661,15.6916667 4.00246103,16.8 C4.70877769,17.5 4.64991797,17.9083333 4.00246103,18.55 C2.76640689,19.775 1.64807219,21.175 0.941755537,22.8083333 C-0.235438884,25.6083333 0.882895816,27.475 3.94360131,27.825 C5.53281378,28 7.12202625,27.9416667 8.59351928,27.475 C10.0061526,27.0666667 10.5358901,27.475 10.8301887,28.8166667 C11.2422067,30.45 11.9485234,31.9083333 13.0079984,33.1916667 C14.7149303,35.2333333 16.7161608,35.2333333 18.4230927,33.1916667 C19.5414274,31.85 20.2477441,30.3333333 20.6597621,28.6416667 C20.9540607,27.4166667 21.4837982,27.0666667 22.7198523,27.4166667 C24.3090648,27.8833333 26.0159967,28 27.6640689,27.825 C30.5481952,27.475 31.6665299,25.6083333 30.5481952,22.9833333 C30.0184578,21.2333333 28.9001231,19.775 27.6052092,18.4916667 L27.6052092,18.4916667 Z M4.12018048,10.9666667 C4.94421657,9.625 6.35684988,9.56666667 7.5340443,9.50833333 C9.88843314,9.50833333 9.65299426,9.56666667 9.7707137,11.6666667 C9.82957342,14.175 8.00492207,14.9916667 6.47456932,16.275 C6.12141099,16.5666667 5.82711239,16.45 5.5916735,16.1583333 C5.2973749,15.6916667 4.94421657,15.2833333 4.70877769,14.8166667 C4.06132075,13.5916667 3.29614438,12.3666667 4.12018048,10.9666667 L4.12018048,10.9666667 Z M9.24097621,15.8083333 L9.24097621,19.4833333 C8.29922067,18.9583333 7.23974569,18.4333333 7.29860541,17.6166667 C7.29860541,16.8583333 8.35808039,16.3333333 9.24097621,15.8083333 L9.24097621,15.8083333 Z M7.76948318,25.7833333 C6.94544709,25.7833333 6.12141099,25.6666667 5.35623462,25.3166667 C4.06132075,24.7916667 3.64930271,23.8 3.82588187,22.5166667 C3.88474159,22.2833333 3.94360131,22.05 4.06132075,21.8166667 C4.59105824,20.7083333 4.88535685,19.25 6.23913043,18.9583333 C7.12202625,18.725 9.47641509,21.6416667 9.59413454,22.75 C9.65299426,23.0416667 9.65299426,23.3333333 9.65299426,23.625 C9.94729286,25.725 9.88843314,25.7833333 7.76948318,25.7833333 L7.76948318,25.7833333 Z M20.6597621,12.95 C19.6002871,12.3666667 18.5996719,11.7833333 17.4813372,11.1416667 C20.2477441,9.68333333 20.7186218,9.975 20.6597621,12.95 L20.6597621,12.95 Z M12.7136998,6.70833333 C13.6554553,5.01666667 14.7149303,4.2 15.8921247,4.2 C17.2458983,4.25833333 19.8945857,7.175 19.6591468,8.4 C19.6591468,8.51666667 19.6002871,8.575 19.5414274,8.69166667 C19.1882691,9.21666667 15.7155455,10.2666667 15.0680886,9.975 C14.5972108,9.8 14.0674733,9.56666667 13.5965956,9.33333333 C11.6542248,8.575 11.6542248,8.575 12.7136998,6.70833333 L12.7136998,6.70833333 Z M11.5365053,10.325 C12.242822,9.85833333 13.1845775,10.675 14.4206317,11.025 C13.0668581,11.7833333 12.0662428,12.3666667 10.9479081,13.0083333 C10.8890484,11.9 10.8301887,10.7916667 11.5365053,10.325 L11.5365053,10.325 Z M10.9479081,22.4583333 C11.6542248,22.4583333 12.0662428,22.9833333 12.5959803,23.2166667 C13.1257178,23.45 13.5965956,23.8 14.2440525,24.15 C11.3599262,25.55 11.0067678,25.375 10.9479081,22.4583333 L10.9479081,22.4583333 Z M18.776251,28.875 C18.0699344,29.9833333 17.304758,31.0916667 15.8921247,31.0916667 C14.3617719,31.0333333 11.9485234,28.35 12.0073831,27.0083333 C12.0073831,26.8916667 12.0662428,26.7166667 12.1251025,26.6 C12.5959803,26.0166667 16.0098441,25.0833333 16.7161608,25.375 C17.0693191,25.55 17.4224774,25.6666667 17.7756358,25.8416667 C20.0123052,26.775 20.0711649,26.8333333 18.776251,28.875 L18.776251,28.875 Z M17.5401969,24.2083333 C18.5408121,23.45 19.5414274,22.925 20.6597621,22.4 C20.4243232,25.55 20.4243232,25.55 17.5401969,24.2083333 L17.5401969,24.2083333 Z M20.6597621,20.825 C19.1882691,21.9333333 17.5990566,23.3916667 15.833265,23.3333333 C14.0086136,23.3333333 12.4194011,21.9333333 11.0067678,20.7666667 C10.0650123,20.0083333 10.5358901,18.6666667 10.5358901,17.5583333 C10.5358901,16.5083333 10.0650123,15.225 10.9479081,14.525 C12.3605414,13.3583333 13.9497539,11.9583333 15.7744053,11.9583333 C17.5990566,11.9 19.1882691,13.3583333 20.6009024,14.4666667 C21.6603774,15.225 20.895201,16.5666667 21.1894996,17.6166667 C20.9540607,18.6666667 21.6603774,20.0083333 20.6597621,20.825 L20.6597621,20.825 Z M21.8369565,10.15 C21.8958162,9.21666667 23.2495898,9.68333333 23.8970468,9.50833333 C24.7799426,9.50833333 25.5451189,9.625 26.3102953,9.975 C27.6640689,10.5583333 28.1938064,11.6666667 27.7817884,13.0666667 C27.3697703,14.35 26.8400328,16.1583333 25.6039787,16.275 C24.6622231,16.3916667 23.3084495,15.1083333 22.4844135,14.1166667 C21.6603774,13.0083333 21.7192371,11.4333333 21.8369565,10.15 L21.8369565,10.15 Z M24.3090648,17.6166667 C24.4267842,18.4333333 23.2495898,18.8416667 22.366694,19.6583333 L22.366694,15.9833333 C23.3673093,16.2166667 24.2502051,16.8583333 24.3090648,17.6166667 L24.3090648,17.6166667 Z M27.6052092,24.2083333 C26.7811731,25.6666667 25.1919606,25.725 24.0147662,25.7833333 C21.7780968,25.725 21.954676,25.6666667 21.8958162,23.7416667 C21.8369565,21.2333333 23.6027482,20.3583333 25.1331009,19.1333333 C25.6039787,18.725 25.8982773,18.9 26.1925759,19.3666667 C26.4280148,19.6583333 26.6634537,20.0083333 26.8400328,20.3 C27.4874897,21.525 28.4292453,22.75 27.6052092,24.2083333 L27.6052092,24.2083333 Z" id="Shape"></path>
                <path d="M19.6002871,17.675 C19.6002871,19.8333333 17.8344955,21.525 15.6566858,21.525 C13.4788761,21.4666667 11.7719442,19.7166667 11.8308039,17.6166667 C11.8896637,15.5166667 13.5965956,13.8833333 15.7155455,13.8833333 C17.8933552,13.7666667 19.6002871,15.4583333 19.6002871,17.675 L19.6002871,17.675 Z" id="Shape"></path>
            </g>
        </g>
    </g>
</svg>