<?xml version="1.0" encoding="UTF-8" standalone="no"?>
<svg width="62px" height="17px" viewBox="0 0 62 17" version="1.1" xmlns="http://www.w3.org/2000/svg" xmlns:xlink="http://www.w3.org/1999/xlink">
    <!-- Generator: Sketch 39.1 (31720) - http://www.bohemiancoding.com/sketch -->
    <title>Group 4</title>
    <desc>Created with Sketch.</desc>
    <defs></defs>
    <g id="Symbols" stroke="none" stroke-width="1" fill="none" fill-rule="evenodd">
        <g id="Categories-BB" transform="translate(-1304.000000, -24.000000)" fill="#45C8F2">
            <g id="Group-4" transform="translate(1304.000000, 24.000000)">
                <path d="M38.5478261,8.08695652 C38.457971,12.4 34.684058,16.084058 30.3710145,16.084058 C26.057971,15.9942029 22.373913,12.1304348 22.4637681,7.90724638 C22.6434783,3.5942029 26.3275362,0 30.5507246,0 C34.773913,0 38.5478261,3.77391304 38.5478261,8.08695652 L38.5478261,8.08695652 Z" id="Shape"></path>
                <path d="M15.8144928,7.90724638 C15.8144928,12.3101449 12.3101449,15.9942029 7.99710145,15.9942029 C3.5942029,15.9942029 0,12.4 0,7.99710145 C0,3.5942029 3.68405797,0 7.99710145,0 C12.2202899,0 15.7246377,3.5942029 15.8144928,7.90724638 L15.8144928,7.90724638 Z" id="Shape"></path>
                <path d="M45.1971014,8.08695652 C45.1971014,3.68405797 48.7913043,0 53.1043478,0 C57.4173913,0 61.1014493,3.77391304 61.1014493,8.08695652 C61.1014493,12.4 57.3275362,16.084058 53.0144928,16.084058 C48.7014493,15.9942029 45.1971014,12.4 45.1971014,8.08695652 L45.1971014,8.08695652 Z" id="Shape"></path>
            </g>
        </g>
    </g>
</svg>