<?xml version="1.0" standalone="no"?>
<!DOCTYPE svg PUBLIC "-//W3C//DTD SVG 20010904//EN"
 "http://www.w3.org/TR/2001/REC-SVG-20010904/DTD/svg10.dtd">
<svg version="1.0" xmlns="http://www.w3.org/2000/svg"
 width="586.000000pt" height="586.000000pt" viewBox="0 0 586.000000 586.000000"
 preserveAspectRatio="xMidYMid meet">
<metadata>
Created by potrace 1.11, written by Peter Selinger 2001-2013
</metadata>
<g transform="translate(0.000000,586.000000) scale(0.100000,-0.100000)"
fill="#000000" stroke="none">
<path d="M1034 4132 c-7 -6 -16 -22 -20 -35 -3 -12 -14 -40 -24 -62 -10 -22
-46 -105 -80 -185 -34 -79 -67 -158 -75 -175 -7 -16 -45 -106 -85 -200 -39
-93 -78 -183 -85 -200 -12 -27 -146 -341 -529 -1239 -75 -175 -136 -322 -136
-327 0 -5 206 -8 492 -7 l491 3 27 65 c15 36 34 81 43 100 17 37 95 221 362
850 92 217 171 398 174 402 4 4 21 -20 39 -55 38 -72 64 -120 212 -387 123
-222 155 -278 204 -370 20 -36 51 -92 69 -125 19 -33 51 -91 72 -130 21 -38
46 -83 55 -100 10 -16 30 -52 45 -80 15 -27 43 -78 62 -112 l35 -63 500 0 499
0 76 157 c42 87 114 237 160 333 47 96 116 238 153 315 37 77 98 203 135 280
38 77 94 194 126 259 l57 119 22 -44 c13 -24 35 -66 50 -94 15 -27 55 -104 90
-170 34 -66 77 -147 95 -180 18 -33 60 -114 95 -180 34 -66 82 -156 105 -200
23 -44 71 -134 105 -200 73 -138 174 -328 195 -365 l14 -25 497 -3 c398 -2
495 0 487 10 -6 7 -45 81 -88 163 -43 83 -90 173 -105 200 -15 28 -58 109 -95
180 -37 72 -84 162 -105 200 -48 90 -122 231 -195 370 -62 119 -126 239 -185
350 -20 39 -68 129 -105 200 -37 72 -82 157 -100 190 -18 33 -61 114 -95 180
-35 66 -92 174 -127 239 -35 66 -63 123 -63 127 0 4 -8 14 -19 21 -14 10 -116
13 -492 11 -261 -1 -479 -2 -486 -2 -7 -1 -25 -29 -42 -63 -16 -35 -73 -153
-126 -263 -153 -314 -243 -501 -300 -620 -153 -319 -266 -547 -269 -544 -2 2
-76 137 -166 299 -89 162 -183 333 -210 380 -43 76 -241 434 -296 535 -12 22
-38 69 -58 105 -20 36 -49 89 -63 118 -22 41 -32 52 -53 53 -14 0 -234 1 -489
2 -361 2 -467 -1 -477 -11z"/>
</g>
</svg>
