<?xml version="1.0" encoding="utf-8"?>
<!-- Generator: Adobe Illustrator 19.0.0, SVG Export Plug-In . SVG Version: 6.00 Build 0)  -->
<svg version="1.1" id="Layer_1" xmlns="http://www.w3.org/2000/svg" xmlns:xlink="http://www.w3.org/1999/xlink" x="0px" y="0px"
	 viewBox="0 0 69.5 70.4" style="enable-background:new 0 0 69.5 70.4;" xml:space="preserve">
<path d="M64.1,58.8c-0.3-1.4-1.3-2.3-2.2-3.3c-3.9-4.1-7.7-8.3-11.6-12.4c-1-1.1-1.4-2.1-0.5-3.5c1.9-3.2,2.7-6.7,3-10.5
	C53.9,14.7,42.6,2.3,30.4,2.3C22,2.3,16.7,4.5,12,8.6C2.8,16.8,0.9,31.2,7.8,41.4c7.3,10.8,20.5,14.2,31.9,8.3c1.3-0.7,2-0.6,3,0.5
	c3.2,3.5,6.4,7,9.7,10.4c1.2,1.3,2.4,2.8,4,3.7c2,1,4,1.1,5.9-0.3C64.1,62.8,64.6,60.9,64.1,58.8z M28.1,44.3
	c-9.1-0.3-16.3-7.7-16.3-16.9c0-9.3,7.4-16.7,16.7-16.6c9.1,0.1,16.2,7.5,16.1,16.8C44.5,36.8,36.9,44.5,28.1,44.3z"/>
</svg>
