<?xml version="1.0" encoding="utf-8"?>
<!-- Generator: Adobe Illustrator 19.0.0, SVG Export Plug-In . SVG Version: 6.00 Build 0)  -->
<svg version="1.1" id="Layer_1" xmlns="http://www.w3.org/2000/svg" xmlns:xlink="http://www.w3.org/1999/xlink" x="0px" y="0px"
	 viewBox="0 0 108.7 108.7" style="enable-background:new 0 0 108.7 108.7;" xml:space="preserve">
<style type="text/css">
	.st0{fill:#EA5855;}
	.st1{fill:#FEFEFE;}
</style>
<path class="st0" d="M108.7,48.6c0,3.9,0,7.8,0,11.7c-0.3,1.1-0.2,2.2-0.3,3.3c-0.5,7-3.2,13.2-6.8,19.1
	c-8.2,13.4-20.1,21.9-35.5,25.4c-2.3,0.5-4.8,0.5-7.2,0.6c-5,0.1-10,0.2-15-0.4c-4.2-0.5-8.2-2-12-3.7c-6.4-2.8-12.1-6.8-16.9-11.8
	c-7.4-7.6-12.3-16.6-14.5-27c-0.5-2.4-0.5-4.9-0.6-7.4c-0.1-4.3-0.1-8.6,0.3-13c0.4-4.5,1.9-8.8,3.6-12.9
	c2.5-5.8,5.9-10.9,10.2-15.6c7.5-8,16.5-13.4,27.2-16c2.3-0.6,4.7-0.6,7.1-0.8c0.3,0,0.6,0.1,0.9-0.1c3.4,0,6.9,0,10.3,0
	c1.3,0.3,2.6,0.3,3.9,0.3C69.7,0.7,75.3,3.1,80.7,6c4.9,2.6,9.3,6,13.1,10c6.9,7.2,11.7,15.6,14,25.3c0.5,2.1,0.5,4.3,0.7,6.4
	C108.6,48,108.5,48.3,108.7,48.6z"/>
<path class="st1" d="M47.3,59.1c-0.3-0.5-0.7-0.9-0.9-1.3c-1-1.5-1.3-3.1-0.7-4.8c0.5-1.3,0-1.4-1.1-1.4c-7.5,0-12.9-5.3-12.7-12.5
	c0.1-3.7,2.1-6.5,4.9-8.7c2.8-2.2,6.1-3.3,9.7-3.3c5.1,0,10.1,0,15.2,0c0.4,0,0.9-0.1,1.3,0.1c-2.1,2.4-4.7,3.2-7.8,2.7
	c2.7,1.9,3.9,4.5,4.4,7.5c0.7,4.4-0.9,7.9-4.2,10.7c-1,0.8-2,1.5-2.8,2.6c-1.1,1.5-1.1,2.8,0,4.2c1.3,1.8,3.2,3.1,4.9,4.4
	c4.7,3.7,6.1,10.3,3.2,15.2c-1.8,3-4.5,4.8-7.7,5.8c-6.6,2-13.1,1.5-19.4-1.5c-4-1.9-5.8-5.1-5.1-8.8c0.4-2.5,1.8-4.4,3.6-6.1
	c3.6-3.2,7.9-4.5,12.6-4.6c0.8,0,1.5,0,2.3,0C47,59.3,47.1,59.2,47.3,59.1z"/>
<path class="st1" d="M65.5,55.6c-3.2,0-3.2,0-3.2-3.2c0-0.2,0-0.4,0-0.5c-0.2-1.3,0.2-1.8,1.6-1.7c1.3,0.1,2.6,0,3.9,0
	c0.8,0,1-0.3,1-1c0-1.4,0-2.9,0-4.3c0-0.8,0.2-1.3,1.1-1.2c1.3,0.1,3.1-0.5,3.9,0.2c0.9,0.8,0.3,2.6,0.3,3.9c0,2.4,0,2.4,2.4,2.4
	c1.1,0,2.3,0,3.4,0c0.6,0,0.9,0.2,0.9,0.9c0,0.1,0,0.2,0,0.3c-0.1,1.3,0.5,3.1-0.2,3.9c-0.8,0.9-2.6,0.3-3.9,0.3
	c-2.5,0.1-2.5,0-2.5,2.5c0,1,0,2.1,0,3.1c0,0.7-0.2,1-0.9,1c-1.2,0-2.4,0-3.5,0c-0.7,0-0.9-0.3-0.9-1c0-1.5,0-3,0-4.5
	c0-0.9-0.2-1.2-1.1-1.2C66.9,55.7,66.2,55.7,65.5,55.6z"/>
<path class="st0" d="M46,78.6c-3,0.1-6-0.6-8.6-2.7c-4.1-3.4-4.1-8.7,0.1-12c3.7-2.9,8.1-3.8,12.5-2.4c2.8,0.9,5.3,2.8,6.9,5.5
	c2,3.5,0.1,8.5-3.9,10.3C51.2,78.1,48.8,78.6,46,78.6z"/>
<path class="st0" d="M53.7,41.3c0,1.6-0.2,3.4-1.1,5c-1.8,3.3-5.2,4.4-8.5,2.6c-5.1-2.7-7.7-10.4-5.4-15.7c1.6-3.5,5.2-4.9,8.7-3
	c3.8,2,5.5,5.4,6.2,9.5C53.6,40.2,53.7,40.6,53.7,41.3z"/>
</svg>
