<?xml version="1.0" encoding="utf-8"?>
<!-- Generator: Adobe Illustrator 19.0.0, SVG Export Plug-In . SVG Version: 6.00 Build 0)  -->
<svg version="1.1" id="Layer_1" xmlns="http://www.w3.org/2000/svg" xmlns:xlink="http://www.w3.org/1999/xlink" x="0px" y="0px"
	 viewBox="0 0 89.5 89.5" style="enable-background:new 0 0 89.5 89.5;" xml:space="preserve">
<style type="text/css">
	.st0{fill:#77CCEF;}
	.st1{fill:#FEFEFE;}
	.st2{fill:#BBE5F7;}
</style>
<g>
	<path class="st0" d="M40.5,0c2.8,0,5.7,0,8.5,0c1.9,0.3,3.8,0.2,5.6,0.6C61.4,2,67.4,4.9,72.8,9.2c8.3,6.6,13.7,15.1,16.1,25.4
		c0.4,1.8,0.3,3.6,0.6,5.4c0,3.2,0,6.4,0,9.6c-0.3,2.5-0.4,4.9-1.1,7.3c-1.9,6.5-5,12.3-9.4,17.4C73.3,81,66.4,85.4,58.2,88
		c-2.6,0.8-5.3,1.3-8,1.4c-0.3,0-0.5-0.1-0.8,0.1c-3.2,0-6.4,0-9.6,0c-2.3-0.3-4.6-0.3-6.8-1c-6.9-1.9-13.1-5.2-18.5-10.1
		c-6-5.4-10.3-12-12.9-19.7c-1-2.9-1.5-5.9-1.6-9c0-0.2,0.1-0.4-0.1-0.6c0-3,0-6,0-9c0.3-1.9,0.2-3.8,0.7-5.7
		C2.5,26.7,6.1,19.9,11.6,14C18,7.1,25.7,2.7,34.9,0.6c1.6-0.4,3.2-0.3,4.9-0.5C40,0.1,40.3,0.2,40.5,0z"/>
	<path class="st1" d="M27.7,42.3c-3.3-2.8-4.4-7-2.8-10.9c0.4-1.1,0.5-1.1,1.2-0.2c4.6,5.1,10.3,8,17.1,8.7c0.9,0.1,1.1-0.2,1-1
		c-0.6-5.1,3.1-9.6,8.1-10.1c2.7-0.3,5,0.4,7,2.2c0.6,0.5,1.1,0.6,1.9,0.4c1.6-0.4,3.1-1.1,4.7-1.9c-0.5,2-1.8,3.4-3.1,4.7
		c1.4,0,2.7-0.5,4.3-1c-0.9,1.7-2.1,2.8-3.3,3.8c-0.9,0.7-1.1,1.4-1.1,2.4c0,10.9-7.6,23-21,25.4c-6.4,1.1-12.5,0.2-18.2-3
		c-0.2-0.1-0.3-0.2-0.5-0.3c0,0-0.1-0.1-0.2-0.3c4.7,0.3,9-0.8,13-3.7c-2.1-0.3-3.9-0.9-5.4-2.1c-1.2-1-2.1-2.2-2.7-3.6
		c-0.3-0.6-0.1-0.8,0.6-0.7c0.9,0.1,1.8,0.1,2.9-0.3c-2.1-0.7-3.8-1.7-5-3.4c-1.2-1.7-1.9-3.5-1.9-5.7c1.1,0.3,2,0.8,3.1,0.9
		C27.5,42.6,27.8,42.7,27.7,42.3z"/>
	<path class="st2" d="M27.7,42.3c0.2,0.1,0.4,0.2,0.2,0.4c-0.2,0.2-0.5,0-0.7-0.1C27.4,42.5,27.6,42.4,27.7,42.3z"/>
</g>
</svg>
